<?xml version="1.0" encoding="UTF-8" standalone="no"?><!DOCTYPE svg PUBLIC "-//W3C//DTD SVG 1.1//EN" "http://www.w3.org/Graphics/SVG/1.1/DTD/svg11.dtd"><svg width="100%" height="100%" viewBox="0 0 16 16" version="1.1" xmlns="http://www.w3.org/2000/svg" xmlns:xlink="http://www.w3.org/1999/xlink" xml:space="preserve" xmlns:serif="http://www.serif.com/" style="fill-rule:evenodd;clip-rule:evenodd;stroke-linejoin:round;stroke-miterlimit:2;"><g id="base"><path d="M0.489,13.007c-0,1.105 1.322,2.441 2.427,2.441l-0,-2.441l-2.427,0Z" style="fill:#e0e0e0;"/><rect x="4.451" y="13.007" width="7.042" height="2.441" style="fill:#e0e0e0;"/><path d="M13.028,13.007l-0,2.441c1.104,0 2.497,-1.336 2.497,-2.441l-2.497,0Z" style="fill:#e0e0e0;"/><rect x="0.489" y="4.465" width="2.427" height="7.056" style="fill:#e0e0e0;"/><rect x="13.028" y="4.465" width="2.498" height="7.056" style="fill:#e0e0e0;"/><path d="M2.916,0.467c-1.105,-0 -2.427,1.407 -2.427,2.512l2.427,-0l-0,-2.512Z" style="fill:#e0e0e0;"/><rect x="4.451" y="0.467" width="7.042" height="2.512" style="fill:#e0e0e0;"/><path d="M13.028,0.467l-0,2.512l2.497,-0c0,-1.105 -1.393,-2.512 -2.497,-2.512Z" style="fill:#e0e0e0;"/></g></svg>
