<svg height="24" viewBox="0 0 100 24" width="100" xmlns="http://www.w3.org/2000/svg"><path d="m96.116 30.781c-1.847-.029-3.96.356-3.96.356v3.605h2.125l-.024 1.606c0 .595-.59.894-1.767.894-1.178 0-2.218-.499-3.12-1.493-.906-.997-1.356-2.453-1.356-4.372 0-1.923.44-3.34 1.32-4.255.88-.914 2.03-1.372 3.448-1.372.628.005 1.253.103 1.852.292.64.194 1.069.376 1.287.546.217.176.422.258.618.258.194 0 .507-.226.94-.685.436-.457.826-1.15 1.169-2.074.342-.929.514-1.64.514-2.145 0-.501-.011-.847-.034-1.029-.48-.526-1.366-.942-2.66-1.252-1.29-.31-2.737-.463-4.338-.463-3.522 0-6.276 1.11-8.265 3.327-1.991 2.219-2.985 5.099-2.985 8.644 0 4.163 1.017 7.318 3.051 9.467 2.037 2.15 4.712 3.223 8.028 3.223 1.783 0 3.366-.154 4.75-.463 1.384-.307 2.304-.623 2.762-.943l.137-10.734c0-.623-1.646-.906-3.492-.938zm17.018-5.01c-1.098 0-2.016.504-2.762 1.509-.742 1.006-1.114 2.417-1.114 4.234 0 1.82.354 3.215 1.064 4.186.709.974 1.64 1.46 2.795 1.46 1.154 0 2.092-.492 2.812-1.478.72-.982 1.082-2.388 1.082-4.218s-.373-3.237-1.116-4.22c-.742-.982-1.663-1.473-2.761-1.473m-.017 18.074c-3.212 0-5.832-1.05-7.856-3.153-2.022-2.104-3.033-5.174-3.033-9.21 0-4.038 1.022-7.096 3.068-9.178 2.047-2.079 4.688-3.12 7.924-3.12 3.235 0 5.849 1.022 7.837 3.072 1.991 2.045 2.985 5.146 2.985 9.294 0 4.15-1.017 7.237-3.053 9.263-2.036 2.021-4.659 3.032-7.872 3.032m20.593-17.835v10.26c0 .478.035.78.104.907.068.126.274.189.616.189 1.26 0 2.213-.47 2.865-1.408.653-.936.976-2.496.976-4.68 0-2.185-.338-3.609-1.01-4.27-.675-.663-1.745-.998-3.208-.998zm-6.585 15.917v-20.579c0-.573.142-1.024.43-1.359.285-.33.656-.497 1.114-.497h5.728c3.635 0 6.397.917 8.281 2.747 1.888 1.829 2.832 4.708 2.832 8.642 0 8.415-3.59 12.622-10.772 12.622h-5.864c-1.165 0-1.75-.524-1.75-1.577m31.623-16.155c-1.098 0-2.02.504-2.763 1.509-.742 1.006-1.113 2.417-1.113 4.234 0 1.82.355 3.215 1.063 4.186.708.974 1.64 1.46 2.795 1.46s2.093-.492 2.813-1.478c.72-.982 1.081-2.388 1.081-4.218s-.372-3.237-1.115-4.22c-.743-.982-1.663-1.473-2.761-1.473m-.018 18.074c-3.213 0-5.83-1.05-7.854-3.153-2.024-2.104-3.036-5.174-3.036-9.21 0-4.038 1.023-7.096 3.069-9.178 2.048-2.079 4.688-3.12 7.925-3.12 3.236 0 5.847 1.022 7.837 3.072 1.99 2.045 2.984 5.146 2.984 9.294 0 4.15-1.017 7.237-3.053 9.263-2.035 2.021-4.66 3.032-7.872 3.032m23.773-.842c0 .454-1.13.685-3.395.685-2.263 0-3.397-.23-3.397-.685v-17.22h-4.115c-.39 0-.663-.525-.823-1.58-.069-.511-.102-1.026-.101-1.542 0-.524.032-1.04.1-1.543.16-1.05.435-1.58.824-1.58h14.92c.39 0 .663.529.825 1.58.137 1.024.137 2.062 0 3.086-.162 1.054-.435 1.579-.824 1.579h-4.014z" fill="#fff" fill-rule="nonzero" transform="matrix(.65565 0 0 .65565 -22.8968 -8.14081)"/><g transform="matrix(.33297592 0 0 .33297592 1.01231 .432502)"><path d="m4.901 28.377v23.125c0 20.07 59.122 20.07 59.122 0v-2.836l.072-2.4v-17.889c1.455-1.891 2.812-3.854 4.073-5.89-1.697-2.86-3.709-5.478-6.036-7.854-2.085.969-4.072 2.109-5.963 3.418-1.939-1.793-4.073-3.345-6.4-4.654.34-2.473.534-4.946.582-7.418-2.86-1.357-5.841-2.375-8.944-3.054-1.261 2.085-2.376 4.242-3.345 6.472-2.376-.339-4.752-.339-7.127 0-.969-2.23-2.084-4.387-3.345-6.472-3.103.679-6.084 1.697-8.945 3.054.049 2.473.243 4.945.582 7.418-2.327 1.309-4.46 2.86-6.4 4.654-1.89-1.309-3.877-2.449-5.962-3.418-2.327 2.375-4.339 4.993-6.036 7.854 1.26 2.036 2.617 3.999 4.072 5.89z" fill="none" stroke="#fff" stroke-width="6.01"/><g fill="#fff" fill-rule="nonzero"><path d="m4.901 46.266 11.054 1.018c.581.049.945.388 1.09 1.018l.291 4.872 9.6.728.581-4.436c.097-.533.461-.897 1.091-1.091h11.78c.631.193.994.557 1.091 1.09l.582 4.437 9.6-.728.29-4.872c.145-.63.509-.969 1.091-1.018l11.053-1.018-.072 2.4-9.745.872-.363 5.018c-.097.485-.437.8-1.018.946l-11.781.8c-.582 0-.97-.267-1.164-.8l-.727-4.727h-9.453l-.728 4.727c-.193.533-.581.8-1.163.8l-11.78-.8c-.582-.146-.922-.461-1.019-.946l-.363-5.018-9.818-.872z" stroke="#fff" stroke-width="3"/><path d="m32.39 40.958-.001-6.254c.218-2.473 4-2.473 4.218 0v6.254c-.217 2.472-3.999 2.472-4.217 0zm-13.402-11.927c3.612 0 6.545 2.933 6.545 6.545s-2.933 6.545-6.545 6.545-6.545-2.933-6.545-6.545 2.933-6.545 6.545-6.545zm31 0c3.612 0 6.545 2.933 6.545 6.545s-2.933 6.545-6.545 6.545-6.545-2.933-6.545-6.545 2.933-6.545 6.545-6.545z"/></g></g><g fill="#414042" stroke-width=".332976"><circle cx="7.535641" cy="12.423964" r="1.452774"/><circle cx="17.463318" cy="12.423964" r="1.452774"/></g></svg>
